<svg xmlns="http://www.w3.org/2000/svg" viewBox="0 0 36 36" fill="none">
  <defs>
    <linearGradient id="grad" x1="0%" y1="0%" x2="100%" y2="100%">
      <stop offset="0%" style="stop-color:hsl(217,91%,60%);stop-opacity:1" />
      <stop offset="100%" style="stop-color:hsl(224,76%,48%);stop-opacity:1" />
    </linearGradient>
  </defs>
  <!-- Rounded square background -->
  <rect width="36" height="36" rx="9" fill="url(#grad)"/>
  <!-- FileText icon (centered, white) -->
  <!-- Page outline -->
  <path d="M11 8h10l6 6v14a1 1 0 0 1-1 1H11a1 1 0 0 1-1-1V9a1 1 0 0 1 1-1z" fill="white" fill-opacity="0.95"/>
  <!-- Folded corner -->
  <path d="M21 8l6 6h-5a1 1 0 0 1-1-1V8z" fill="white" fill-opacity="0.6"/>
  <!-- Text lines -->
  <line x1="13.5" y1="17" x2="22.5" y2="17" stroke="hsl(217,91%,55%)" stroke-width="1.5" stroke-linecap="round"/>
  <line x1="13.5" y1="20" x2="22.5" y2="20" stroke="hsl(217,91%,55%)" stroke-width="1.5" stroke-linecap="round"/>
  <line x1="13.5" y1="23" x2="19" y2="23" stroke="hsl(217,91%,55%)" stroke-width="1.5" stroke-linecap="round"/>
</svg>
